<svg xmlns="http://www.w3.org/2000/svg" version="1.1" xmlns:xlink="http://www.w3.org/1999/xlink" xmlns:svgjs="http://svgjs.dev/svgjs" width="2000" height="1500" viewBox="0 0 2000 1500"><rect width="2000" height="1500" fill="#000000"></rect><g transform="matrix(0.75,0,0,0.75,249.09181581837277,342.45412462982426)"><svg viewBox="0 0 396 215" data-background-color="#000000" preserveAspectRatio="xMidYMid meet" height="1085" width="2000" xmlns="http://www.w3.org/2000/svg" xmlns:xlink="http://www.w3.org/1999/xlink"><g id="tight-bounds" transform="matrix(1,0,0,1,0.24023937605034007,0.17725124987747165)"><svg viewBox="0 0 395.52 214.64549750024506" height="214.64549750024506" width="395.52"><g><svg viewBox="0 0 395.52 214.64549750024506" height="214.64549750024506" width="395.52"><g><svg viewBox="0 0 395.52 214.64549750024506" height="214.64549750024506" width="395.52"><g id="textblocktransform"><svg viewBox="0 0 395.52 214.64549750024506" height="214.64549750024506" width="395.52" id="textblock"><g><svg viewBox="0 0 395.52 214.64549750024506" height="214.64549750024506" width="395.52"><g transform="matrix(1,0,0,1,0,0)"><svg width="395.52" viewBox="0.44382717284 -30.8 63.75617282716 34.6" height="214.64549750024506" data-palette-color="#ffffff"><path d="M6.15 3.4L6.15 3.4Q3.85 3.4 2.63 1.93 1.4 0.45 1.4-1.95L1.4-1.95Q1.4-3.85 2.05-5.65L2.05-5.65Q2.15-6 2.27-6.53 2.4-7.05 2.55-7.75L2.55-7.75Q2.75-8.95 3.6-10.55L3.6-10.55Q3-9.95 2.38-9.58 1.75-9.2 1.55-9.2L1.55-9.2Q1.1-9.2 0.75-9.53 0.4-9.85 0.45-10.45L0.45-10.45Q0.7-12.2 1.73-12.78 2.75-13.35 4.45-13.85L4.45-13.85Q4.55-13.9 4.8-13.95 5.05-14 5.45-14.05L5.45-14.05Q5.85-14.15 6.13-14.25 6.4-14.35 6.5-14.4L6.5-14.4Q9.65-19.85 13.7-23.45L13.7-23.45Q17.75-27.15 22.23-28.98 26.7-30.8 31.1-30.8L31.1-30.8Q32.65-30.8 33.93-30.05 35.2-29.3 35.2-28.05L35.2-28.05Q35.2-27.6 35.1-27.3L35.1-27.3Q34.5-25.45 33.98-24.48 33.45-23.5 32.55-22.6L32.55-22.6Q32-22.05 31.3-22.05L31.3-22.05Q30.7-22.05 30.7-22.65L30.7-22.65Q30.7-23.1 31.05-23.75L31.05-23.75Q31.15-23.85 31.35-24.03 31.55-24.2 31.8-24.4L31.8-24.4Q32.75-25.2 33.27-25.85 33.8-26.5 34.15-27.5L34.15-27.5Q34.5-28.55 33.35-28.95 32.2-29.35 30.65-29.35L30.65-29.35Q26.95-29.35 23.03-27.55 19.1-25.75 15.33-22.45 11.55-19.15 8.35-14.65L8.35-14.65Q9.45-15.2 10.48-15.63 11.5-16.05 12.5-16.4L12.5-16.4Q12.8-16.5 13.43-16.7 14.05-16.9 15-17.1L15-17.1 16.5-17.45Q18.95-18 21.08-18.32 23.2-18.65 24.95-18.65L24.95-18.65Q28.15-18.65 29.55-17.7L29.55-17.7Q30-17.4 29.55-17.15L29.55-17.15Q29.25-17.05 29.1-17.05L29.1-17.05Q28.85-17.05 28.55-17.2L28.55-17.2Q27.6-17.8 25.8-17.8L25.8-17.8Q22.8-17.8 16.4-16L16.4-16Q15.05-15.65 13.28-14.88 11.5-14.1 9.78-13.2 8.05-12.3 6.75-11.5L6.75-11.5Q5.75-9.85 5.2-8.65 4.65-7.45 4.1-5.65L4.1-5.65Q3.5-3.85 3.5-2.3L3.5-2.3Q3.5-0.35 4.42 0.8 5.35 1.95 7.15 1.95L7.15 1.95Q9.9 1.95 13.65 0.8L13.65 0.8Q17.35-0.4 20.73-2.27 24.1-4.15 26-6.05L26-6.05Q26.6-6.65 26.95-6.4L26.95-6.4 27-6.25Q27-6 26.6-5.6L26.6-5.6Q24.6-3.6 20.85-1.45L20.85-1.45Q18.4-0.05 15.75 1.05 13.1 2.15 10.63 2.78 8.15 3.4 6.15 3.4ZM25.55 3.8L25.55 3.8Q25.25 3.8 25.25 3.4L25.25 3.4Q25.25 2.9 25.8 2.2L25.8 2.2Q28.65-1.05 32.32-4.25 36-7.45 40.6-11.1L40.6-11.1Q40.45-11.05 42.3-12.5L42.3-12.5 43.15-13.2Q41.1-13 39.57-12.85 38.05-12.7 37.05-12.55L37.05-12.55 36.95-12.55Q36.6-12.55 36.35-12.8 36.1-13.05 36.1-13.35L36.1-13.35Q36.1-14.05 36.85-14.15L36.85-14.15Q37.2-14.2 38.72-14.4 40.25-14.6 42.9-14.9L42.9-14.9 45.65-15.2 47.95-17.2Q50.15-19.1 51.95-20.58 53.75-22.05 55.57-23.35 57.4-24.65 59.7-26L59.7-26Q56.65-26.2 54.5-26.25 52.35-26.3 51.05-26.35L51.05-26.35 48.35-26.4Q44.8-26.5 42.22-25.43 39.65-24.35 38.25-21.3L38.25-21.3Q38.1-20.9 37.8-20.9L37.8-20.9Q37.25-20.9 37.25-21.9L37.25-21.9Q37.25-23.25 38.45-25.1L38.45-25.1Q40.3-28 49.65-28L49.65-28 51.55-28Q55.35-28 58.25-27.85 61.15-27.7 63.15-27.45L63.15-27.45Q64.2-27.35 64.2-26.45L64.2-26.45Q64.2-25.85 63.55-25.5L63.55-25.5Q61.75-24.6 59.15-23.03 56.55-21.45 53.75-19.55 50.95-17.65 48.45-15.6L48.45-15.6Q51.1-15.85 53.2-15.98 55.3-16.1 56.75-16.1L56.75-16.1Q57.3-16.1 57.3-15.85L57.3-15.85Q57.3-15.55 56.05-15.1L56.05-15.1Q54.65-14.6 52.05-14.25L52.05-14.25Q50.6-14.05 49.15-13.88 47.7-13.7 46.25-13.6L46.25-13.6Q45.45-12.95 44.87-12.53 44.3-12.1 43.95-11.85L43.95-11.85 42.4-10.65Q40.95-9.55 38.8-7.75 36.65-5.95 33.8-3.5L33.8-3.5 31.05-1.15Q31.25-1.2 31.57-1.25 31.9-1.3 32.35-1.4L32.35-1.4Q33.45-1.65 34.27-1.78 35.1-1.9 35.6-1.9L35.6-1.9Q37.15-1.9 38.47-1.73 39.8-1.55 41.3-1.2 42.8-0.85 44.75-0.25L44.75-0.25Q47.3 0.5 49.15 0.93 51 1.35 53 1.35L53 1.35Q54.65 1.35 55.92 0.13 57.2-1.1 57.2-2.75L57.2-2.75Q57.2-3.65 56.85-4.35L56.85-4.35 56.75-4.75Q56.75-5.1 57-5.38 57.25-5.65 57.5-5.65L57.5-5.65Q57.8-5.65 58-5.35L58-5.35Q58.75-4.1 58.75-2.75L58.75-2.75Q58.75-1.2 57.9 0.1 57.05 1.4 55.67 2.2 54.3 3 52.6 3L52.6 3Q50.45 3 48.35 2.63 46.25 2.25 43.25 1.5L43.25 1.5Q40.15 0.75 38.15 0.38 36.15 0 34.05 0L34.05 0Q32.25 0 30.32 0.93 28.4 1.85 26.15 3.5L26.15 3.5Q25.8 3.8 25.55 3.8Z" opacity="1" transform="matrix(1,0,0,1,0,0)" fill="#ffffff" class="wordmark-text-0" data-fill-palette-color="primary" id="text-0"></path></svg></g></svg></g></svg></g></svg></g><g></g></svg></g><defs></defs></svg><rect width="395.52" height="214.64549750024506" fill="none" stroke="none" visibility="hidden"></rect></g></svg></g></svg>